<?xml version="1.0" encoding="utf-8"?>
<!-- Generator: Adobe Illustrator 23.0.1, SVG Export Plug-In . SVG Version: 6.00 Build 0)  -->
<svg version="1.1" id="블로그" xmlns="http://www.w3.org/2000/svg" xmlns:xlink="http://www.w3.org/1999/xlink" x="0px" y="0px"
	 viewBox="0 0 46 46" style="enable-background:new 0 0 46 46;" xml:space="preserve">
<style type="text/css">
	.st0{fill:#52B335;}
	.st1{fill:#FFFFFF;}
</style>
<circle class="st0" cx="23" cy="23" r="23"/>
<g>
	<path class="st1" d="M17.6,17v2.2c0,0,1-0.1,1,1.9v5.6h2v-6.1C20.6,20.5,20.7,17,17.6,17z"/>
	<path class="st1" d="M13.9,19.9c-0.7,0.1-1.3,0.4-1.8,0.9v-3.6H10v9.4h2.1v-0.7c0.4,0.6,1.1,1,1.8,1c1.8-0.1,3.1-1.6,3-3.4
		c0,0,0-0.1,0-0.1C16.9,23.3,16.8,19.9,13.9,19.9z M13.5,24.8L13.5,24.8c-0.8,0.1-1.5-0.6-1.5-1.4c-0.1-0.8,0.6-1.5,1.4-1.5
		c0.8-0.1,1.5,0.6,1.5,1.4c0,0,0,0.1,0,0.1C14.8,24.2,14.2,24.8,13.5,24.8z"/>
	<path class="st1" d="M25.9,19.9c-0.1,0-0.2,0-0.4,0v0c0,0-3.5,0-3.5,3.5c-0.1,1.8,1.3,3.4,3.1,3.4c0.1,0,0.2,0,0.4,0
		c0,0,3.6,0,3.6-3.4C29.2,21.5,27.8,20,25.9,19.9z M25.5,24.8L25.5,24.8c-0.8,0-1.5-0.6-1.5-1.4c-0.1-0.8,0.6-1.5,1.4-1.5
		c0.8-0.1,1.5,0.6,1.5,1.4c0,0,0,0.1,0,0.1C26.9,24.2,26.3,24.8,25.5,24.8z"/>
	<polygon class="st1" points="34.9,20.1 34.9,20.1 34.9,20.1 	"/>
	<path class="st1" d="M34.9,20.1v0.6c-0.4-0.5-1.1-0.9-1.8-0.9c0,0-3-0.1-3,3.4c0,0,0,3.3,2.9,3.3c0.7,0,1.4-0.3,1.9-0.9v0.5
		c0.1,0.8-0.4,1.5-1.2,1.6c-0.1,0-0.1,0-0.2,0h-0.5v2h0.8c0,0,3.1,0,3.1-3.5v-6.4H34.9z M33.7,24.8L33.7,24.8
		c-0.8,0.1-1.5-0.6-1.5-1.4s0.6-1.5,1.4-1.5s1.5,0.6,1.5,1.4c0,0,0,0.1,0,0.1C35.1,24.2,34.5,24.8,33.7,24.8z"/>
</g>
</svg>
