<?xml version="1.0" encoding="utf-8"?>
<!-- Generator: Adobe Illustrator 23.0.1, SVG Export Plug-In . SVG Version: 6.00 Build 0)  -->
<svg version="1.1" id="인스타_copy" xmlns="http://www.w3.org/2000/svg" xmlns:xlink="http://www.w3.org/1999/xlink" x="0px"
	 y="0px" viewBox="0 0 46 46" style="enable-background:new 0 0 46 46;" xml:space="preserve">
<style type="text/css">
	.st0{fill:url(#Ellipse_1331_copy_1_);}
	.st1{fill:#FAFAFA;}
	.st2{fill:#FFFFFF;}
</style>
<linearGradient id="Ellipse_1331_copy_1_" gradientUnits="userSpaceOnUse" x1="6.8333" y1="6.8333" x2="39.3602" y2="39.3602">
	<stop  offset="0" style="stop-color:#322DDF"/>
	<stop  offset="0.11" style="stop-color:#3845E3"/>
	<stop  offset="0.35" style="stop-color:#D8438C"/>
	<stop  offset="0.7" style="stop-color:#DF5C40"/>
	<stop  offset="1" style="stop-color:#E5C56E"/>
</linearGradient>
<circle id="Ellipse_1331_copy" class="st0" cx="23" cy="23" r="23"/>
<g id="인스타">
	<g>
		<path class="st1" d="M26.4,34.7H20c-4.7,0-8.5-3.8-8.5-8.5v-7.3c0-4.7,3.8-8.5,8.5-8.5h6.4c4.7,0,8.5,3.8,8.5,8.5v7.3
			C34.9,30.9,31.1,34.7,26.4,34.7z M20,13.4c-3,0-5.5,2.5-5.5,5.5v7.3c0,3,2.5,5.5,5.5,5.5h6.4c3,0,5.5-2.5,5.5-5.5v-7.3
			c0-3-2.5-5.5-5.5-5.5H20z"/>
	</g>
	<g>
		<path class="st2" d="M23.1,29.6c-0.1,0-0.2,0-0.4,0c-3.5-0.2-6.2-3-6.2-6.5c0.1-3.7,3.2-6.6,6.8-6.5l0,0c3.6,0.2,6.4,3.3,6.2,6.9
			C29.4,26.9,26.5,29.6,23.1,29.6z M23.2,19.6c-2,0-3.6,1.6-3.7,3.6c0,1.8,1.5,3.4,3.3,3.5c1.9,0.1,3.6-1.4,3.7-3.3
			C26.7,21.3,25.2,19.7,23.2,19.6C23.3,19.6,23.2,19.6,23.2,19.6z M29.1,18.5c0,0-0.1,0-0.1,0c-0.8-0.1-1.5-0.8-1.5-1.7
			c0-1,0.8-1.7,1.7-1.7l0.1,0c0.9,0.1,1.6,0.9,1.5,1.8c0,0.4-0.2,0.8-0.6,1.1C29.9,18.4,29.5,18.5,29.1,18.5z"/>
	</g>
</g>
</svg>
